<?xml version="1.0" encoding="UTF-8"?>
<svg width="150px" height="22px" viewBox="0 0 150 22" version="1.1" xmlns="http://www.w3.org/2000/svg" xmlns:xlink="http://www.w3.org/1999/xlink">
    <!-- Generator: Sketch 53 (72520) - https://sketchapp.com -->
    <title>logo-desktop</title>
    <desc>Created with Sketch.</desc>
    <g id="PCI-Proxy" stroke="none" stroke-width="1" fill="none" fill-rule="evenodd">
        <g id="datatrans-styleguide" transform="translate(-434.000000, -4385.000000)" fill="#213D62">
            <g id="im/logo/im_logo_desktop" transform="translate(434.000000, 4383.000000)">
                <path d="M0,13.0667568 L0.700007509,9.01989938 L4.74686491,9.01989938 L4.04700758,13.0667568 L0,13.0667568 Z M18.0753924,10.7380041 L19.5919501,2 L23.6608846,2 L19.853871,23.638357 L16.1162424,23.638357 L16.4176616,22.04085 C15.8346474,22.684088 15.1466547,23.1711346 14.3530825,23.5027409 C13.5590598,23.8341969 12.7103702,24 11.8062627,24 C10.8012315,24 9.90223023,23.8139221 9.10850792,23.4423669 C8.31448524,23.0708117 7.63159871,22.5682962 7.05894721,21.9354209 C6.48629571,21.3023954 6.04911016,20.5639408 5.74784111,19.7200571 C5.44642187,18.8760231 5.29578734,17.9920402 5.29578734,17.0675077 C5.29578734,16.1435759 5.45633401,15.1837501 5.77802808,14.1890816 C6.09912142,13.1944132 6.59187505,12.2901554 7.2549373,11.4764587 C7.91799955,10.6626117 8.75152061,9.98948712 9.75655178,9.45693475 C10.7611324,8.92483292 11.9465345,8.65825636 13.3132087,8.65825636 C14.4585117,8.65825636 15.4231434,8.84418413 16.2068033,9.21588946 C16.9904633,9.58789517 17.6131261,10.0950665 18.0753924,10.7380041 Z M16.8396786,17.595104 C17.0403244,17.062852 17.141248,16.5250432 17.141248,15.9824285 C17.141248,15.4201397 17.0506871,14.9077119 16.8698656,14.4452955 C16.6890441,13.9831794 16.4374859,13.5966058 16.1162424,13.2848239 C15.7946985,12.9734925 15.4180371,12.7324472 14.986108,12.5615379 C14.5537283,12.3909289 14.086506,12.3051738 13.5845911,12.3051738 C12.9816025,12.3051738 12.4287752,12.4211159 11.9267102,12.6517985 C11.4241946,12.883232 10.9924157,13.1944132 10.6307727,13.5862431 C10.2689795,13.9780731 9.98272884,14.4406398 9.77157017,14.9727416 C9.56071187,15.505294 9.45513254,16.0629271 9.45513254,16.6454907 C9.43500788,17.7108958 9.74618908,18.5948787 10.3895772,19.2980401 C11.0323646,20.001652 11.9064354,20.3529323 13.0117894,20.3529323 C13.6344522,20.3529323 14.202448,20.2276789 14.7147255,19.9761207 C15.2271533,19.7251633 15.6590824,19.3988135 16.0108132,18.9966209 C16.3622437,18.5948787 16.6385823,18.1276564 16.8396786,17.595104 Z M36.5825636,10.7380041 L36.8839829,9.01989938 L40.9228805,9.01989938 L38.3608921,23.638357 L34.5631899,23.638357 L34.8344222,22.1312608 C34.2512578,22.7543741 33.5731771,23.2214463 32.7998799,23.5327777 C32.026132,23.844109 31.1972667,24 30.3132838,24 C29.3082526,24 28.4091011,23.8139221 27.615529,23.4423669 C26.8215063,23.0708117 26.1386198,22.5682962 25.5659683,21.9354209 C24.9933168,21.3023954 24.5562814,20.5639408 24.2548622,19.7200571 C23.9535932,18.8760231 23.8028084,17.9920402 23.8028084,17.0675077 C23.8028084,16.1435759 23.9633551,15.1837501 24.2850492,14.1890816 C24.6062927,13.1944132 25.098746,12.2901554 25.7619584,11.4764587 C26.4250207,10.6626117 27.2585417,9.98948712 28.2635729,9.45693475 C29.2681535,8.92483292 30.4535556,8.65825636 31.8202298,8.65825636 C32.965683,8.65825636 33.9301645,8.84418413 34.7138244,9.21588946 C35.4974844,9.58789517 36.1201472,10.0950665 36.5825636,10.7380041 Z M35.3468499,17.5799354 C35.5473455,17.0575956 35.6482691,16.515131 35.6482691,15.9523917 C35.6482691,15.3899527 35.5578584,14.8823309 35.3770369,14.4301269 C35.1960652,13.9780731 34.9446572,13.5966058 34.6234137,13.2848239 C34.3017196,12.9734925 33.9250582,12.7324472 33.4931291,12.5615379 C33.0607494,12.3909289 32.5935271,12.3051738 32.0916122,12.3051738 C31.4887737,12.3051738 30.9359465,12.4211159 30.4338815,12.6517985 C29.9313659,12.883232 29.4994368,13.1944132 29.1377938,13.5862431 C28.7760006,13.9780731 28.4897499,14.4406398 28.2785913,14.9727416 C28.067733,15.505294 27.9621536,16.0629271 27.9621536,16.6454907 C27.942029,17.7108958 28.2532102,18.5948787 28.8965983,19.2980401 C29.5395359,20.001652 30.4136067,20.3529323 31.5188105,20.3529323 C32.1414733,20.3529323 32.7094691,20.2276789 33.2218968,19.9761207 C33.7343245,19.7251633 34.1661035,19.3935571 34.5179845,18.9816025 C34.8692648,18.5699482 35.1456034,18.1027258 35.3468499,17.5799354 Z M50.2363896,4.95081475 L49.5129534,9.01989938 L53.8232335,9.01989938 L53.220395,12.4257716 L48.8800781,12.4257716 L47.9154464,17.9115416 C47.8953218,18.0319892 47.8803034,18.1479312 47.8703912,18.2581663 C47.8600285,18.3687017 47.8552226,18.4841931 47.8552226,18.6047909 C47.8552226,19.3686266 48.1312608,19.8706916 48.684088,20.1117369 C49.2366149,20.3529323 49.9951941,20.4735301 50.9598258,20.4735301 C51.2409702,20.4735301 51.4721033,20.4735301 51.653075,20.4735301 C51.8338965,20.4735301 52.0246302,20.4636179 52.2257265,20.4433431 L51.622888,23.8493655 C51.3411429,23.8893144 51.0601487,23.9247578 50.7790043,23.9547946 C50.4972591,23.9848314 50.1658031,24 49.7843358,24 C49.1212736,24 48.43268,23.9345198 47.7196065,23.8040099 C47.0060825,23.6731997 46.3529323,23.437561 45.7604566,23.0957423 C45.1675302,22.7543741 44.6852895,22.2818953 44.3135841,21.6790568 C43.9415784,21.0763686 43.7561012,20.3029211 43.7561012,19.3582639 C43.7561012,19.1170684 43.7712698,18.8812796 43.8013066,18.6499962 C43.8313434,18.4191635 43.8663363,18.1728618 43.9067358,17.9115416 L44.8713674,12.4257716 L42.5504243,12.4257716 L43.123226,9.01989938 L45.4740557,9.01989938 L46.1974919,4.95081475 L50.2363896,4.95081475 Z M67.1454532,10.7380041 L67.4470226,9.01989938 L71.4859203,9.01989938 L68.9239318,23.638357 L65.1260794,23.638357 L65.3974619,22.1312608 C64.8142975,22.7543741 64.1362169,23.2214463 63.3627694,23.5327777 C62.5890216,23.844109 61.7601562,24 60.8761733,24 C59.8711421,24 58.9721409,23.8139221 58.1785687,23.4423669 C57.3845461,23.0708117 56.7016595,22.5682962 56.129008,21.9354209 C55.5562064,21.3023954 55.119171,20.5639408 54.8179019,19.7200571 C54.5164827,18.8760231 54.3658482,17.9920402 54.3658482,17.0675077 C54.3658482,16.1435759 54.5262446,15.1837501 54.8479387,14.1890816 C55.1691822,13.1944132 55.6617857,12.2901554 56.3248479,11.4764587 C56.9879102,10.6626117 57.8215814,9.98948712 58.8266126,9.45693475 C59.8311932,8.92483292 61.0165953,8.65825636 62.3832695,8.65825636 C63.5285725,8.65825636 64.4932042,8.84418413 65.276714,9.21588946 C66.0605241,9.58789517 66.6831869,10.0950665 67.1454532,10.7380041 Z M65.9097394,17.5799354 C66.1103852,17.0575956 66.2113089,16.515131 66.2113089,15.9523917 C66.2113089,15.3899527 66.1207479,14.8823309 65.9399264,14.4301269 C65.7591049,13.9780731 65.5075467,13.5966058 65.1863032,13.2848239 C64.8647593,12.9734925 64.4879477,12.7324472 64.0560186,12.5615379 C63.6237891,12.3909289 63.1565668,12.3051738 62.6545018,12.3051738 C62.0516633,12.3051738 61.4988361,12.4211159 60.996771,12.6517985 C60.4942555,12.883232 60.0624765,13.1944132 59.7006833,13.5862431 C59.3388901,13.9780731 59.0527897,14.4406398 58.841631,14.9727416 C58.6306225,15.505294 58.5251934,16.0629271 58.5251934,16.6454907 C58.5050687,17.7108958 58.8162499,18.5948787 59.4594879,19.2980401 C60.1024255,20.001652 60.9764962,20.3529323 62.0818503,20.3529323 C62.7043628,20.3529323 63.2725088,20.2276789 63.7847864,19.9761207 C64.2972141,19.7251633 64.728993,19.3935571 65.0808741,18.9816025 C65.4323046,18.5699482 65.7086431,18.1027258 65.9097394,17.5799354 Z M80.7994293,4.95081475 L80.0759931,9.01989938 L84.386123,9.01989938 L83.7832845,12.4257716 L79.4429676,12.4257716 L78.4784861,17.9115416 C78.4582113,18.0319892 78.4431929,18.1479312 78.4332808,18.2581663 C78.4229181,18.3687017 78.4182624,18.4841931 78.4182624,18.6047909 C78.4182624,19.3686266 78.6943005,19.8706916 79.2469775,20.1117369 C79.7995044,20.3529323 80.5582338,20.4735301 81.5228655,20.4735301 C81.8038597,20.4735301 82.0351431,20.4735301 82.2159646,20.4735301 C82.3967861,20.4735301 82.5876699,20.4636179 82.7886161,20.4433431 L82.1859278,23.8493655 C81.9041826,23.8893144 81.6230382,23.9247578 81.342044,23.9547946 C81.0602989,23.9848314 80.7286926,24 80.3473755,24 C79.6843133,24 78.9957198,23.9345198 78.2826462,23.8040099 C77.5691222,23.6731997 76.9159721,23.437561 76.3234963,23.0957423 C75.7304198,22.7543741 75.248179,22.2818953 74.8766239,21.6790568 C74.5046182,21.0763686 74.3189908,20.3029211 74.3189908,19.3582639 C74.3189908,19.1170684 74.3341593,18.8812796 74.3641961,18.6499962 C74.3943831,18.4191635 74.4292258,18.1728618 74.4697755,17.9115416 L75.4344071,12.4257716 L73.113464,12.4257716 L73.6861155,9.01989938 L76.0369453,9.01989938 L76.7605317,4.95081475 L80.7994293,4.95081475 Z M94.7845611,8.83907787 C95.4072238,8.83907787 96.0001502,8.94976346 96.5628895,9.1705339 L95.9300143,12.697154 C95.5880454,12.6570549 95.2866261,12.6268679 95.0257566,12.6067433 C94.7644364,12.586919 94.5230908,12.5765563 94.3023203,12.5765563 C93.2370654,12.5765563 92.3479763,12.8628069 91.6349028,13.4356086 C90.9213787,14.0082601 90.4540062,14.9275362 90.2333859,16.193437 L88.9372982,23.638357 L84.8682136,23.638357 L87.430202,9.01989938 L91.1675302,9.01989938 L90.8964481,10.4968086 C91.9614027,9.39190508 93.2573402,8.83907787 94.7845611,8.83907787 Z M109.101299,10.7380041 L109.402568,9.01989938 L113.441616,9.01989938 L110.879477,23.638357 L107.081775,23.638357 L107.353158,22.1312608 C106.769993,22.7543741 106.091762,23.2214463 105.318615,23.5327777 C104.544867,23.844109 103.716002,24 102.831869,24 C101.826988,24 100.927987,23.8139221 100.134415,23.4423669 C99.3402418,23.0708117 98.6575054,22.5682962 98.0847038,21.9354209 C97.5120523,21.3023954 97.0748667,20.5639408 96.7737478,19.7200571 C96.4721784,18.8760231 96.3215439,17.9920402 96.3215439,17.0675077 C96.3215439,16.1435759 96.4819404,15.1837501 96.8037846,14.1890816 C97.124878,13.1944132 97.6176316,12.2901554 98.2806938,11.4764587 C98.9437561,10.6626117 99.7774273,9.98948712 100.782308,9.45693475 C101.786889,8.92483292 102.972291,8.65825636 104.339115,8.65825636 C105.484418,8.65825636 106.44875,8.84418413 107.23256,9.21588946 C108.01622,9.58789517 108.638732,10.0950665 109.101299,10.7380041 Z M107.865585,17.5799354 C108.066081,17.0575956 108.167005,16.515131 108.167005,15.9523917 C108.167005,15.3899527 108.076444,14.8823309 107.895622,14.4301269 C107.714801,13.9780731 107.463242,13.5966058 107.142149,13.2848239 C106.820455,12.9734925 106.443643,12.7324472 106.011714,12.5615379 C105.579485,12.3909289 105.112263,12.3051738 104.610197,12.3051738 C104.007509,12.3051738 103.454532,12.4211159 102.952467,12.6517985 C102.449951,12.883232 102.018022,13.1944132 101.656379,13.5862431 C101.294736,13.9780731 101.008485,14.4406398 100.797477,14.9727416 C100.586468,15.505294 100.480889,16.0629271 100.480889,16.6454907 C100.460614,17.7108958 100.772096,18.5948787 101.415334,19.2980401 C102.058271,20.001652 102.932192,20.3529323 104.037546,20.3529323 C104.660209,20.3529323 105.228205,20.2276789 105.740632,19.9761207 C106.25306,19.7251633 106.684839,19.3935571 107.03657,18.9816025 C107.38785,18.5699482 107.664339,18.1027258 107.865585,17.5799354 Z M128.136818,10.0447548 C128.588871,10.4868964 128.935646,11.0143426 129.176691,11.6270932 C129.417887,12.2402944 129.538485,12.918375 129.538485,13.6616355 C129.538485,14.124052 129.478111,14.6863408 129.357663,15.349403 L127.910791,23.638357 L123.871893,23.638357 L125.258542,15.6207855 C125.298491,15.3998648 125.333784,15.2040249 125.363821,15.0329654 C125.394158,14.8625066 125.409026,14.6967035 125.409026,14.5357062 C125.409026,13.7723211 125.177893,13.1897575 124.715777,12.7875648 C124.25336,12.3858226 123.64061,12.1847263 122.877225,12.1847263 C122.113239,12.1847263 121.445521,12.4060975 120.872869,12.8477885 C120.300218,13.2900803 119.933468,13.9531426 119.772621,14.8371255 L118.265675,23.638357 L114.196591,23.638357 L116.758729,9.01989938 L120.465871,9.01989938 L120.255012,10.3159871 C120.777352,9.81392205 121.385297,9.41172937 122.078546,9.11031013 C122.771645,8.80889089 123.560111,8.65825636 124.444695,8.65825636 C125.20808,8.65825636 125.901179,8.77870391 126.524292,9.01989938 C127.146955,9.26094466 127.684764,9.60291357 128.136818,10.0447548 Z M137.088533,12.2147631 C136.817151,12.3955846 136.681535,12.6570549 136.681535,12.9985733 C136.681535,13.2801682 136.787114,13.5108508 136.998123,13.6916723 C137.209131,13.8724938 137.535481,14.0735901 137.977623,14.2945108 L139.303897,14.8671623 C140.509424,15.3899527 141.443869,15.9777728 142.106931,16.6304723 C142.770143,17.2837726 143.101599,18.1223999 143.101599,19.1472554 C143.101599,19.7703687 142.975895,20.3732072 142.724938,20.9557708 C142.47338,21.538785 142.106931,22.0558684 141.62469,22.5079222 C141.14245,22.9601262 140.539761,23.3217692 139.816325,23.5931516 C139.092889,23.8643839 138.249005,24 137.284373,24 C135.837651,24 134.561388,23.6934745 133.456484,23.0807239 C132.35113,22.4679733 131.497484,21.6593827 130.894496,20.6543516 L133.426297,18.4239694 C133.968912,19.0672073 134.536457,19.609822 135.129383,20.0515131 C135.721709,20.4936547 136.450402,20.7145754 137.31456,20.7145754 C137.816625,20.7145754 138.258917,20.6144026 138.640685,20.4131561 C139.022302,20.2125103 139.213487,19.9110911 139.213487,19.5088984 C139.213487,19.1675302 139.092889,18.9062101 138.851693,18.7252384 C138.610648,18.5444169 138.268679,18.3437711 137.826838,18.1223999 L136.44049,17.5497484 C135.87775,17.3087032 135.370429,17.0478336 134.918375,16.7662386 C134.466171,16.4849441 134.079147,16.1685064 133.757903,15.8166254 C133.43636,15.465345 133.189908,15.0735151 133.019449,14.6412856 C132.848539,14.2093565 132.763235,13.7119471 132.763235,13.1492078 C132.763235,12.4460464 132.903657,11.8131711 133.185252,11.2502816 C133.466396,10.6879928 133.848314,10.2156642 134.330555,9.83359616 C134.812946,9.45227904 135.385447,9.16062176 136.04866,8.9596756 C136.711722,8.75902981 137.424645,8.65825636 138.188631,8.65825636 C139.413982,8.65825636 140.489299,8.87947736 141.413832,9.32131862 C142.337764,9.76361042 143.111512,10.4063978 143.734625,11.2502816 L141.323271,13.5108508 C140.881129,12.9886611 140.388976,12.5966809 139.846362,12.3353608 C139.303897,12.0744913 138.75092,11.9435308 138.188631,11.9435308 C137.726215,11.9435308 137.359916,12.0340918 137.088533,12.2147631 Z M145.536232,19.5913494 L149.583239,19.5913494 L148.883232,23.638357 L144.836224,23.638357 L145.536232,19.5913494 Z" id="logo-desktop"></path>
            </g>
        </g>
    </g>
</svg>